# xmcd
#
# Track frame offsets:
#	150
#	11574
#	32324
#	48174
#	76590
#	97350
#	114348
#	133696
#	152461
#	173856
#	196130
#	210692
#	232585
#	254567
#	277415
#	293230
#	315540
#
# Disc length: 4794 seconds
#
# Revision: 2
# Processed by: cddbd v1.5.2PL0 Copyright (c) Steve Scherf et al.
# Submitted via: EZCDAudioConverter 6.0.0.1
#
DISCID=df12b811
DTITLE=Various Artist - Akella Presents - vol.120 - Blues-Rock  CD2
DYEAR=2017
DGENRE=Blues
TTITLE0=Carson Cole - She's Riding me For my Harley
TTITLE1=Five Horse Johnson - Daddy Was a Gun
TTITLE2=Big Chris and D'Bare Bones Band - You'll Shoot Your Eye Out
TTITLE3=Jason Elmore - All It Does Is Rain
TTITLE4=Son Of Man - Pale Rider
TTITLE5=Tony Sarno - The Hard Way
TTITLE6=Sideburn - Driving On The Main Line
TTITLE7=Rory Kelly's Triple Threat - Loves Got A Hold
TTITLE8=Sean Chambers - Cut Off My Right Arm
TTITLE9=Thunder - In Another Life
TTITLE10=Too Slim and the Taildraggers - Letter
TTITLE11=Blindside Blues Band - Slow Down
TTITLE12=Paul Rose - Past Myself
TTITLE13=Hounddog Mike - Except Through Me
TTITLE14=The Nimmo Brothers - Wishing Well
TTITLE15=Mitch Laddie - Paper In Your Pocket
TTITLE16=The Devil And The Almighty Blues - Root To Root
EXTD=
EXTT0=
EXTT1=
EXTT2=
EXTT3=
EXTT4=
EXTT5=
EXTT6=
EXTT7=
EXTT8=
EXTT9=
EXTT10=
EXTT11=
EXTT12=
EXTT13=
EXTT14=
EXTT15=
EXTT16=
PLAYORDER=
